HIERARCHY
ROOT Storm:Solving:Root
{
	OFFSET 0.000000 0.000000 0.000000
	CHANNELS 6 Xposition Yposition Zposition Xrotation Yrotation Zrotation
	JOINT Storm:Solving:L_Clav
	{
		OFFSET 0.000000 0.000000 0.000000
		CHANNELS 6 Xposition Yposition Zposition Xrotation Yrotation Zrotation
		JOINT Storm:Solving:L_Scapula_Joint
		{
			OFFSET 4.000000 0.000000 0.000000
			CHANNELS 6 Xposition Yposition Zposition Xrotation Yrotation Zrotation
			JOINT Storm:Solving:L_Shoulder_Joint
			{
				OFFSET 4.002680 -11.084217 10.770057
				CHANNELS 6 Xposition Yposition Zposition Xrotation Yrotation Zrotation
				JOINT Storm:Solving:L_Elbow_Joint
				{
					OFFSET 2.147804 -15.161016 -8.035206
					CHANNELS 6 Xposition Yposition Zposition Xrotation Yrotation Zrotation
					JOINT Storm:Solving:L_Wrist_Joint
					{
						OFFSET -2.240269 -20.029085 -9.040075
						CHANNELS 6 Xposition Yposition Zposition Xrotation Yrotation Zrotation
						JOINT Storm:Solving:L_Paw_Joint
						{
							OFFSET 0.706234 -5.721245 1.834930
							CHANNELS 6 Xposition Yposition Zposition Xrotation Yrotation Zrotation
							JOINT Storm:Solving:NewBone_4
							{
								OFFSET 1.343818 -3.510090 4.244948
								CHANNELS 6 Xposition Yposition Zposition Xrotation Yrotation Zrotation
								End Site
								{
									OFFSET 5.410949 0.263100 -1.672891
								}
							}
						}
					}
				}
			}
		}
	}
	JOINT Storm:Solving:R_Clav
	{
		OFFSET 0.000000 0.000000 0.000000
		CHANNELS 6 Xposition Yposition Zposition Xrotation Yrotation Zrotation
		JOINT Storm:Solving:R_Scapula_Joint
		{
			OFFSET -4.000000 -0.000000 0.000001
			CHANNELS 6 Xposition Yposition Zposition Xrotation Yrotation Zrotation
			JOINT Storm:Solving:NewBone_3
			{
				OFFSET -4.614829 -11.686039 9.889529
				CHANNELS 6 Xposition Yposition Zposition Xrotation Yrotation Zrotation
				JOINT Storm:Solving:R_Elbow_Joint
				{
					OFFSET -0.160743 -16.404385 -5.491840
					CHANNELS 6 Xposition Yposition Zposition Xrotation Yrotation Zrotation
					JOINT Storm:Solving:R_Wrist_Joint
					{
						OFFSET 2.412016 -21.935680 1.190893
						CHANNELS 6 Xposition Yposition Zposition Xrotation Yrotation Zrotation
						JOINT Storm:Solving:R_Paw_Joint
						{
							OFFSET -0.535018 -3.351765 3.806499
							CHANNELS 6 Xposition Yposition Zposition Xrotation Yrotation Zrotation
							JOINT Storm:Solving:NewBone_5
							{
								OFFSET -0.877549 -2.975662 5.252175
								CHANNELS 6 Xposition Yposition Zposition Xrotation Yrotation Zrotation
								End Site
								{
									OFFSET 5.926299 0.585030 1.321637
								}
							}
						}
					}
				}
			}
		}
	}
	JOINT Storm:Solving:Root_To_Spine_Dummy
	{
		OFFSET 0.000000 0.000000 0.000000
		CHANNELS 6 Xposition Yposition Zposition Xrotation Yrotation Zrotation
		JOINT Storm:Solving:Spine1
		{
			OFFSET 0.000000 0.000000 -3.827275
			CHANNELS 6 Xposition Yposition Zposition Xrotation Yrotation Zrotation
			JOINT Storm:Solving:Spine2
			{
				OFFSET 0.000001 0.000000 -16.939260
				CHANNELS 6 Xposition Yposition Zposition Xrotation Yrotation Zrotation
				JOINT Storm:Solving:Spine3
				{
					OFFSET 0.000002 0.000000 -14.393892
					CHANNELS 6 Xposition Yposition Zposition Xrotation Yrotation Zrotation
					JOINT Storm:Solving:Pelvis_Root
					{
						OFFSET 0.000002 0.000000 -14.393890
						CHANNELS 6 Xposition Yposition Zposition Xrotation Yrotation Zrotation
						JOINT Storm:Solving:L_Pelvis
						{
							OFFSET 0.000000 0.000000 0.000000
							CHANNELS 6 Xposition Yposition Zposition Xrotation Yrotation Zrotation
							JOINT Storm:Solving:LFemur_Joint
							{
								OFFSET 8.318080 -6.780918 -6.728058
								CHANNELS 6 Xposition Yposition Zposition Xrotation Yrotation Zrotation
								JOINT Storm:Solving:LTibia_Joint
								{
									OFFSET 4.762119 -18.232958 12.109562
									CHANNELS 6 Xposition Yposition Zposition Xrotation Yrotation Zrotation
									JOINT Storm:Solving:LAnkle_Joint
									{
										OFFSET 1.748854 -18.426313 -12.690502
										CHANNELS 6 Xposition Yposition Zposition Xrotation Yrotation Zrotation
										JOINT Storm:Solving:LFoot_Joint
										{
											OFFSET 2.893215 -10.324425 3.420891
											CHANNELS 6 Xposition Yposition Zposition Xrotation Yrotation Zrotation
											JOINT Storm:Solving:LFoot_End
											{
												OFFSET 3.317142 -1.153622 6.178677
												CHANNELS 6 Xposition Yposition Zposition Xrotation Yrotation Zrotation
												End Site
												{
													OFFSET 6.285072 0.685661 -3.246243
												}
											}
										}
									}
								}
							}
						}
						JOINT Storm:Solving:R_Pelvis
						{
							OFFSET 0.000000 0.000000 0.000000
							CHANNELS 6 Xposition Yposition Zposition Xrotation Yrotation Zrotation
							JOINT Storm:Solving:RFemur_Joint
							{
								OFFSET -8.082922 -7.104603 -6.553699
								CHANNELS 6 Xposition Yposition Zposition Xrotation Yrotation Zrotation
								JOINT Storm:Solving:RTibia_Joint
								{
									OFFSET -3.034004 -18.950596 11.551186
									CHANNELS 6 Xposition Yposition Zposition Xrotation Yrotation Zrotation
									JOINT Storm:Solving:RAnkle_Joint
									{
										OFFSET 0.163292 -19.936810 -10.210636
										CHANNELS 6 Xposition Yposition Zposition Xrotation Yrotation Zrotation
										JOINT Storm:Solving:RFoot_Joint
										{
											OFFSET -0.793680 -9.967937 0.101715
											CHANNELS 6 Xposition Yposition Zposition Xrotation Yrotation Zrotation
											JOINT Storm:Solving:RFoot_End
											{
												OFFSET -4.434014 -1.490955 4.525612
												CHANNELS 6 Xposition Yposition Zposition Xrotation Yrotation Zrotation
												End Site
												{
													OFFSET -4.697033 0.328136 -4.493862
												}
											}
										}
									}
								}
							}
						}
					}
				}
			}
		}
	}
	JOINT Storm:Solving:Root_To_Neck
	{
		OFFSET 0.000000 0.000000 0.000000
		CHANNELS 6 Xposition Yposition Zposition Xrotation Yrotation Zrotation
		JOINT Storm:Solving:Neck1
		{
			OFFSET 0.000000 4.185541 5.729186
			CHANNELS 6 Xposition Yposition Zposition Xrotation Yrotation Zrotation
			JOINT Storm:Solving:Neck2
			{
				OFFSET 2.125778 5.862305 7.100437
				CHANNELS 6 Xposition Yposition Zposition Xrotation Yrotation Zrotation
				JOINT Storm:Solving:Head
				{
					OFFSET -4.381103 5.689912 1.801980
					CHANNELS 6 Xposition Yposition Zposition Xrotation Yrotation Zrotation
					JOINT Storm:Solving:Head_End
					{
						OFFSET -9.753127 2.579648 15.562063
						CHANNELS 6 Xposition Yposition Zposition Xrotation Yrotation Zrotation
						End Site
						{
							OFFSET -4.085257 17.259090 -5.421284
						}
					}
				}
			}
		}
	}
	JOINT Storm:Solving:R_Clav_1
	{
		OFFSET 0.000000 0.000000 0.000000
		CHANNELS 6 Xposition Yposition Zposition Xrotation Yrotation Zrotation
		End Site
		{
			OFFSET 0.000000 0.010000 -0.000000
		}
	}
}
MOTION
Frames: 4
Frame Time: 0.008333
120.396393 55.931049 -28.294373 121.046101 67.116635 -123.103231 -0.000002 -0.000001 0.000008 -2.409822 -0.538656 12.592539 4.000000 -0.000004 0.000007 -3.406592 2.132902 -23.395710 4.002676 -11.084219 10.770061 -2.276989 -10.872270 -1.846955 2.147799 -15.161001 -8.035211 -26.051805 -5.644656 14.658127 -2.240271 -20.029079 -9.040079 -9.596792 -7.405317 7.725588 0.706226 -5.721240 1.834932 7.316104 0.210434 -2.276843 1.343812 -3.510102 4.244946 0.000006 -0.000003 -0.000002 -0.000002 -0.000001 0.000008 2.687151 -0.319241 -6.770193 -3.999997 0.000012 -0.000007 1.437375 -4.602796 -2.425972 -4.614829 -11.686045 9.889523 6.688917 6.651704 4.582896 -0.160742 -16.404377 -5.491840 -18.795325 -2.133805 0.598473 2.412012 -21.935684 1.190892 -9.594741 -6.128376 -4.652086 -0.535021 -3.351761 3.806501 31.817193 4.937331 5.927410 -0.877549 -2.975674 5.252167 -0.000000 -0.000000 0.000001 -0.000002 -0.000001 0.000008 0.000001 0.000000 0.000000 -0.000003 -0.000003 -3.827271 -17.711977 -7.618995 -4.172581 0.000000 -0.000002 -16.939260 -3.097972 7.777450 -14.242262 0.000004 0.000004 -14.393893 0.476365 0.471939 14.650165 -0.000000 0.000003 -14.393894 8.936731 7.322176 -5.039974 -0.000002 0.000008 -0.000011 -0.000001 -0.000003 -0.000000 8.318078 -6.780910 -6.728062 9.345709 -6.547373 -3.744828 4.762121 -18.232956 12.109554 -9.793720 -2.303349 1.591977 1.748848 -18.426310 -12.690512 -11.394681 -3.626327 -6.029271 2.893218 -10.324423 3.420896 -6.213285 -0.853555 3.177401 3.317150 -1.153626 6.178677 0.000000 0.000002 0.000002 0.000001 0.000013 -0.000008 -0.000002 0.000005 -0.000006 -8.082920 -7.104599 -6.553699 -19.547423 2.186509 5.574999 -3.034006 -18.950602 11.551182 -6.260086 0.544592 -1.024455 0.163297 -19.936815 -10.210641 -4.976440 0.216521 3.588963 -0.793679 -9.967937 0.101703 21.805413 2.485382 20.843383 -4.434021 -1.490948 4.525615 -0.000001 0.000005 0.000001 -0.000002 -0.000001 0.000008 0.000002 0.000000 -0.000000 0.000002 4.185534 5.729198 0.877616 0.943165 -1.066259 2.125783 5.862304 7.100439 52.892606 10.658429 -36.101986 -4.381097 5.689904 1.801978 -20.114120 4.599790 5.090300 -9.753134 2.579649 15.562069 -0.000005 -0.000000 0.000004 -0.000002 -0.000001 0.000008 0.000001 0.000000 0.000000 
120.602448 55.904610 -28.435028 121.628116 66.931107 -123.858336 0.000002 0.000000 0.000012 -2.334191 -0.529487 12.773675 3.999998 0.000005 0.000009 -3.344762 2.014992 -23.541900 4.002678 -11.084226 10.770056 -2.270324 -10.788394 -1.807113 2.147801 -15.161005 -8.035201 -26.005387 -5.564607 14.576407 -2.240270 -20.029095 -9.040073 -9.679830 -7.694983 7.891276 0.706239 -5.721238 1.834927 6.990034 0.207263 -2.174954 1.343816 -3.510094 4.244952 0.000005 0.000001 0.000001 0.000002 0.000000 0.000012 2.702872 -0.342681 -7.220314 -3.999997 0.000015 0.000005 1.368857 -4.725279 -1.582643 -4.614830 -11.686039 9.889518 8.120559 6.593888 3.928919 -0.160747 -16.404375 -5.491838 -22.357716 -2.554330 0.631500 2.412014 -21.935686 1.190881 -8.868066 -6.312363 -5.843924 -0.535019 -3.351758 3.806501 41.648701 7.050141 7.123868 -0.877552 -2.975658 5.252175 -0.000000 -0.000000 0.000002 0.000002 0.000000 0.000012 -0.000001 -0.000000 -0.000000 0.000001 0.000001 -3.827263 -17.559062 -7.747452 -4.069518 0.000001 -0.000002 -16.939259 -3.286891 7.809395 -14.180955 -0.000001 -0.000004 -14.393886 0.238300 0.518478 16.698668 0.000001 0.000000 -14.393890 9.315784 6.809322 -6.956135 -0.000001 0.000001 -0.000004 0.000000 -0.000002 0.000001 8.318081 -6.780921 -6.728065 9.477756 -6.465224 -3.572694 4.762120 -18.232950 12.109560 -9.526327 -2.236822 1.553713 1.748850 -18.426317 -12.690510 -11.144487 -3.640497 -6.220054 2.893212 -10.324421 3.420883 -6.681135 -0.932020 3.413659 3.317141 -1.153622 6.178676 0.000001 0.000001 -0.000000 0.000003 0.000006 0.000000 -0.000001 -0.000002 -0.000004 -8.082921 -7.104606 -6.553697 -18.932007 2.845269 5.490159 -3.034005 -18.950588 11.551177 -8.614514 0.778118 -1.393855 0.163292 -19.936813 -10.210639 -2.520521 0.194677 4.172188 -0.793683 -9.967943 0.101708 21.884087 2.509240 20.918347 -4.434012 -1.490949 4.525610 0.000003 0.000008 0.000001 0.000002 0.000000 0.000012 0.000002 0.000000 -0.000000 0.000001 4.185528 5.729176 0.780033 1.111700 -1.179587 2.125773 5.862301 7.100437 52.995796 10.650999 -36.121059 -4.381100 5.689916 1.801974 -19.963422 4.260701 5.156349 -9.753123 2.579646 15.562068 0.000002 -0.000000 0.000005 0.000002 0.000000 0.000012 -0.000003 -0.000000 0.000000 
120.827141 55.873699 -28.574396 122.240538 66.662332 -124.592677 -0.000001 0.000007 0.000006 -2.279834 -0.522511 12.901831 4.000000 -0.000004 0.000008 -3.295988 1.765284 -23.584471 4.002678 -11.084225 10.770046 -2.231141 -10.756856 -1.921436 2.147799 -15.161009 -8.035208 -26.035911 -5.707603 14.649144 -2.240269 -20.029091 -9.040062 -9.927480 -7.837470 7.749919 0.706239 -5.721251 1.834926 7.135985 0.208751 -2.220558 1.343825 -3.510086 4.244960 0.000006 0.000003 0.000001 -0.000001 0.000007 0.000006 2.749818 -0.392185 -8.110710 -4.000002 0.000002 -0.000004 1.297342 -4.895462 -0.202161 -4.614830 -11.686047 9.889530 9.523872 6.795158 3.148507 -0.160748 -16.404381 -5.491854 -26.484759 -3.042795 0.636981 2.412016 -21.935675 1.190899 -7.437191 -6.670136 -8.171822 -0.535021 -3.351762 3.806510 52.825154 9.654671 8.024356 -0.877549 -2.975670 5.252170 -0.000000 -0.000001 0.000001 -0.000001 0.000007 0.000006 0.000000 0.000000 0.000000 -0.000001 0.000010 -3.827271 -17.488602 -7.898706 -3.942070 0.000000 -0.000001 -16.939253 -3.637020 7.908148 -14.097703 0.000004 0.000003 -14.393892 0.339395 0.534990 18.804233 0.000001 -0.000004 -14.393890 9.641588 6.290364 -8.871804 0.000001 0.000002 0.000011 -0.000003 0.000001 -0.000004 8.318082 -6.780926 -6.728064 9.613685 -6.422812 -3.548467 4.762122 -18.232956 12.109569 -9.378306 -2.200073 1.532401 1.748854 -18.426319 -12.690516 -11.013527 -3.666811 -6.412827 2.893216 -10.324425 3.420898 -7.072720 -0.999215 3.611033 3.317152 -1.153624 6.178683 0.000002 0.000004 0.000001 0.000005 0.000009 0.000004 -0.000000 0.000003 -0.000006 -8.082921 -7.104594 -6.553703 -18.526152 3.033101 5.393349 -3.034009 -18.950592 11.551188 -10.414320 0.966851 -1.669745 0.163295 -19.936811 -10.210633 0.141826 0.136857 4.659192 -0.793688 -9.967939 0.101704 20.594719 2.132301 19.689347 -4.434019 -1.490966 4.525609 -0.000000 0.000001 0.000002 -0.000001 0.000007 0.000006 0.000003 0.000000 -0.000000 -0.000001 4.185535 5.729194 0.638053 1.253254 -1.254666 2.125774 5.862301 7.100434 52.987901 10.675248 -36.089435 -4.381104 5.689913 1.801978 -19.641379 3.958094 5.188791 -9.753127 2.579654 15.562048 0.000003 -0.000000 0.000005 -0.000001 0.000007 0.000006 0.000000 0.000000 0.000000 
121.043129 55.826069 -28.707499 122.900853 66.376741 -125.342823 -0.000003 0.000002 0.000003 -2.244770 -0.521776 13.078853 3.999998 -0.000005 0.000002 -3.271347 1.561012 -23.677484 4.002684 -11.084214 10.770069 -2.121440 -10.792169 -2.081934 2.147802 -15.161005 -8.035192 -26.164580 -5.567057 14.734692 -2.240268 -20.029091 -9.040069 -9.923397 -8.000797 7.701960 0.706238 -5.721238 1.834930 6.816707 0.205337 -2.120805 1.343815 -3.510090 4.244951 0.000007 -0.000000 0.000000 -0.000003 0.000002 0.000003 2.697704 -0.400204 -8.432098 -3.999999 0.000003 -0.000001 1.144771 -5.197793 0.427218 -4.614830 -11.686045 9.889524 11.377427 6.793409 2.447542 -0.160740 -16.404398 -5.491841 -31.590448 -3.645272 0.595055 2.412015 -21.935692 1.190893 -2.055068 -7.192369 -9.080556 -0.535020 -3.351758 3.806493 60.163441 11.431262 8.330927 -0.877549 -2.975666 5.252170 -0.000000 0.000001 -0.000001 -0.000003 0.000002 0.000003 0.000000 -0.000001 0.000000 0.000000 0.000005 -3.827278 -17.399516 -8.030722 -3.778348 0.000000 -0.000003 -16.939270 -3.997525 7.977311 -13.604346 0.000002 0.000000 -14.393890 0.476712 0.466261 18.405572 0.000003 0.000000 -14.393877 9.764408 6.303402 -8.881883 0.000002 0.000000 0.000011 -0.000003 0.000006 -0.000004 8.318084 -6.780916 -6.728062 9.638608 -6.508890 -3.361216 4.762118 -18.232950 12.109561 -9.093383 -2.129500 1.491121 1.748852 -18.426310 -12.690507 -10.889737 -3.708809 -6.675763 2.893211 -10.324417 3.420896 -7.419448 -1.059876 3.785505 3.317143 -1.153626 6.178684 0.000000 0.000001 -0.000000 0.000007 0.000006 0.000011 0.000002 0.000003 -0.000003 -8.082914 -7.104603 -6.553710 -18.267800 2.822779 5.433608 -3.034006 -18.950600 11.551205 -11.277332 1.060435 -1.799950 0.163296 -19.936800 -10.210628 2.833916 0.080162 5.617175 -0.793686 -9.967937 0.101702 17.295444 1.302554 16.541323 -4.434022 -1.490965 4.525618 0.000002 0.000001 -0.000001 -0.000003 0.000002 0.000003 0.000002 -0.000001 -0.000000 0.000001 4.185538 5.729194 0.493813 1.392696 -1.326365 2.125771 5.862294 7.100429 53.036661 10.756961 -35.990077 -4.381110 5.689911 1.801973 -19.283786 3.749637 5.172653 -9.753129 2.579654 15.562070 -0.000003 -0.000001 -0.000001 -0.000003 0.000002 0.000003 0.000000 -0.000001 0.000000 
